# xmcd
#
# Track frame offsets:
#	150
#	20068
#	36799
#	52817
#	70437
#	85931
#	105928
#	116286
#	132775
#	151422
#	170041
#	189224
#
# Disc length: 2702 seconds
#
# Revision: 1
# Processed by: cddbd v1.5.2PL0 Copyright (c) Steve Scherf et al.
# Submitted via: audiograbber 1.83.01
#
DISCID=920a8c0c
DTITLE=Silber - Hier und jetzt
DYEAR=2006
DGENRE=Rock
TTITLE0=Niemand anders
TTITLE1=Unednlich
TTITLE2=Dies ist unser Tag
TTITLE3=Wo bist du
TTITLE4=Keine Zeit für Wunder
TTITLE5=Willkommen in meiner Welt
TTITLE6=16:57 (Interlude)
TTITLE7=Lass es gehen
TTITLE8=Maskenignoranz
TTITLE9=Weisst du wer ich bin
TTITLE10=Wie ein Stein
TTITLE11=Nichts ist klar
EXTD=
EXTT0=
EXTT1=
EXTT2=
EXTT3=
EXTT4=
EXTT5=
EXTT6=
EXTT7=
EXTT8=
EXTT9=
EXTT10=
EXTT11=
PLAYORDER=
